<svg width="298" height="66" viewBox="0 0 298 66" fill="none" xmlns="http://www.w3.org/2000/svg">
<g clip-path="url(#clip0_1_512)">
<path d="M32.5 62.625C49.0685 62.625 62.5 49.1935 62.5 32.625C62.5 16.0565 49.0685 2.625 32.5 2.625C15.9315 2.625 2.5 16.0565 2.5 32.625C2.5 49.1935 15.9315 62.625 32.5 62.625Z" stroke="#5C8692" stroke-width="5"/>
<path d="M48.7815 24.1241C49.0288 26.6937 48.0987 29.2703 46.1959 31.2873L34.8073 43.3941L19.1207 44.9039L17.8004 31.1862L29.2089 19.0937C31.1118 17.0768 33.8316 15.7848 36.7699 15.502L47.0471 15.7481L48.7815 24.1241Z" stroke="#5C8692" stroke-width="5" stroke-linecap="round" stroke-linejoin="round"/>
<path d="M39.394 23.7612L9.84851 53.3067" stroke="#5C8692" stroke-width="5" stroke-linecap="round" stroke-linejoin="round"/>
<path d="M41.3637 35.5796H27.5758" stroke="#5C8692" stroke-width="5" stroke-linecap="round" stroke-linejoin="round"/>
<path d="M39.394 23.7612H25.6061" stroke="#5C8692" stroke-width="5" stroke-linecap="round" stroke-linejoin="round"/>
<path d="M97.5859 31.2422C99.9557 31.4245 101.889 31.8672 103.387 32.5703C104.897 33.2604 105.984 34.1133 106.648 35.1289C107.325 36.1315 107.664 37.2122 107.664 38.3711C107.664 40.0247 107.221 41.4375 106.336 42.6094C105.45 43.7682 104.181 44.6471 102.527 45.2461C100.874 45.832 98.9075 46.125 96.6289 46.125C96.056 46.125 95.0729 46.1055 93.6797 46.0664C92.2994 46.0273 90.9062 46.0078 89.5 46.0078C86.7526 46.0078 84.7018 46.0469 83.3476 46.125V45.3242C84.233 45.2852 84.8776 45.181 85.2812 45.0117C85.6849 44.8424 85.9583 44.5299 86.1015 44.0742C86.2578 43.6185 86.3359 42.8893 86.3359 41.8867V22.043C86.3359 21.0404 86.2578 20.3112 86.1015 19.8555C85.9583 19.3997 85.6849 19.0872 85.2812 18.918C84.8776 18.7487 84.233 18.6445 83.3476 18.6055V17.8047C84.6888 17.8828 86.7135 17.9219 89.4218 17.9219C90.4896 17.9219 91.6744 17.9089 92.9765 17.8828C94.2786 17.8568 95.1836 17.8438 95.6914 17.8438C97.8398 17.8438 99.6497 18.1107 101.121 18.6445C102.605 19.1654 103.719 19.901 104.461 20.8516C105.203 21.7891 105.574 22.8828 105.574 24.1328C105.574 25.1224 105.288 26.0924 104.715 27.043C104.142 27.9935 103.25 28.8398 102.039 29.582C100.841 30.3112 99.3567 30.8385 97.5859 31.1641V31.2422ZM94.4218 31.0859C96.1536 31.0859 97.3646 30.4935 98.0547 29.3086C98.7578 28.1237 99.1093 26.5417 99.1093 24.5625C99.1093 22.5573 98.7968 21.0664 98.1718 20.0898C97.5468 19.1003 96.5508 18.6055 95.1836 18.6055C94.4674 18.6055 93.9336 18.7031 93.582 18.8984C93.2435 19.0807 93.0091 19.4128 92.8789 19.8945C92.7617 20.3633 92.7031 21.0794 92.7031 22.043V31.0859H94.4218ZM92.7031 41.8867C92.7031 42.8503 92.7682 43.5599 92.8984 44.0156C93.0416 44.4714 93.3021 44.7839 93.6797 44.9531C94.0573 45.1224 94.6497 45.207 95.457 45.207C99.1679 45.207 101.023 42.8698 101.023 38.1953C101.023 36.099 100.49 34.5039 99.4218 33.4102C98.3672 32.3164 96.6875 31.7695 94.3828 31.7695H92.7031V41.8867ZM117.234 33.7617C117.194 34.1523 117.175 34.7773 117.175 35.6367C117.175 37.4076 117.422 38.8789 117.917 40.0508C118.412 41.2096 119.05 42.0625 119.831 42.6094C120.625 43.1432 121.472 43.4102 122.37 43.4102C124.571 43.4102 126.335 42.3424 127.663 40.207L128.366 40.4414C128.028 41.5352 127.5 42.5573 126.784 43.5078C126.081 44.4453 125.183 45.2135 124.089 45.8125C123.008 46.3984 121.771 46.6914 120.378 46.6914C118.542 46.6914 116.928 46.3008 115.534 45.5195C114.154 44.7383 113.073 43.5534 112.292 41.9648C111.524 40.3633 111.14 38.3776 111.14 36.0078C111.14 33.5859 111.556 31.5482 112.39 29.8945C113.223 28.2279 114.375 26.9779 115.847 26.1445C117.318 25.3112 119.017 24.8945 120.944 24.8945C125.958 24.8945 128.464 27.8503 128.464 33.7617H117.234ZM123.425 33C123.464 30.9167 123.249 29.1849 122.78 27.8047C122.325 26.4245 121.628 25.7344 120.691 25.7344C119.74 25.7344 118.946 26.3268 118.308 27.5117C117.683 28.6836 117.299 30.513 117.155 33H123.425ZM142.643 29.25C142.643 28.1432 142.376 27.2708 141.842 26.6328C141.321 25.9948 140.501 25.6758 139.381 25.6758C138.86 25.6758 138.34 25.7604 137.819 25.9297C137.298 26.0859 136.868 26.3268 136.53 26.6523C137.272 26.8997 137.851 27.2904 138.268 27.8242C138.685 28.3451 138.893 29.0026 138.893 29.7969C138.893 30.3438 138.756 30.8385 138.483 31.2812C138.222 31.7109 137.845 32.056 137.35 32.3164C136.855 32.5638 136.289 32.6875 135.651 32.6875C134.791 32.6875 134.101 32.3945 133.58 31.8086C133.073 31.2227 132.819 30.487 132.819 29.6016C132.819 28.2214 133.561 27.1016 135.045 26.2422C136.673 25.3438 138.704 24.8945 141.139 24.8945C143.873 24.8945 145.82 25.4935 146.979 26.6914C147.539 27.2513 147.916 27.9479 148.112 28.7812C148.307 29.6146 148.405 30.7799 148.405 32.2773V43.1562C148.405 43.8073 148.463 44.2695 148.58 44.543C148.711 44.8034 148.932 44.9336 149.244 44.9336C149.674 44.9336 150.169 44.7057 150.729 44.25L151.139 44.9336C150.527 45.4414 149.863 45.8125 149.147 46.0469C148.431 46.2812 147.571 46.3984 146.569 46.3984C145.215 46.3984 144.238 46.099 143.639 45.5C143.04 44.901 142.741 44.1198 142.741 43.1562C142.09 44.237 141.237 45.0508 140.182 45.5977C139.127 46.1315 138.001 46.3984 136.803 46.3984C135.28 46.3984 134.056 46.0013 133.131 45.207C132.22 44.3997 131.764 43.2799 131.764 41.8477C131.764 40.4544 132.22 39.3021 133.131 38.3906C134.043 37.4792 135.455 36.6719 137.369 35.9688C137.578 35.8906 138.255 35.6367 139.401 35.207C140.547 34.7643 141.373 34.3151 141.881 33.8594C142.389 33.4036 142.643 32.9023 142.643 32.3555V29.25ZM142.643 33.9961C142.474 34.2826 142.194 34.582 141.803 34.8945C141.425 35.194 140.879 35.5651 140.162 36.0078C139.316 36.5938 138.652 37.2578 138.17 38C137.689 38.7292 137.448 39.6406 137.448 40.7344C137.448 41.776 137.675 42.5573 138.131 43.0781C138.587 43.5859 139.186 43.8398 139.928 43.8398C140.983 43.8398 141.888 43.293 142.643 42.1992V33.9961ZM173.033 41.7695C173.033 43.0065 173.222 43.9049 173.599 44.4648C173.99 45.0117 174.654 45.2852 175.591 45.2852V46.125C174.758 46.0469 173.931 46.0078 173.111 46.0078C170.767 46.0078 168.821 46.1966 167.271 46.5742V42.9609C166.06 45.4479 163.912 46.6914 160.826 46.6914C158.834 46.6914 157.382 46.1706 156.47 45.1289C156.028 44.6341 155.709 43.9766 155.513 43.1562C155.331 42.3359 155.24 41.2617 155.24 39.9336V29.7969C155.24 28.5729 155.045 27.681 154.654 27.1211C154.276 26.5612 153.619 26.2812 152.681 26.2812V25.4414C153.528 25.5195 154.354 25.5586 155.162 25.5586C157.492 25.5586 159.439 25.3763 161.002 25.0117V41.5742C161.002 42.681 161.164 43.5208 161.49 44.0938C161.828 44.6536 162.46 44.9336 163.384 44.9336C164.087 44.9336 164.732 44.7318 165.318 44.3281C165.917 43.9115 166.392 43.3516 166.744 42.6484C167.095 41.9323 167.271 41.1445 167.271 40.2852V29.7969C167.271 28.5729 167.076 27.681 166.685 27.1211C166.308 26.5612 165.65 26.2812 164.712 26.2812V25.4414C165.559 25.5195 166.386 25.5586 167.193 25.5586C169.524 25.5586 171.47 25.3763 173.033 25.0117V41.7695ZM191.04 25.4805V26.2812H186.313V42.4141C186.313 43.2083 186.456 43.7747 186.743 44.1133C187.029 44.4388 187.472 44.6016 188.071 44.6016C189.204 44.6016 190.109 43.8008 190.786 42.1992L191.469 42.5703C190.467 45.3177 188.644 46.6914 186.001 46.6914C184.243 46.6914 182.908 46.2357 181.997 45.3242C181.437 44.7773 181.053 44.0872 180.844 43.2539C180.649 42.4076 180.552 41.2422 180.552 39.7578V26.2812H177.192V25.4805H180.552V20.168C182.752 20.168 184.673 19.7383 186.313 18.8789V25.4805H191.04ZM205.687 25.4414C206.937 25.5195 208.233 25.5586 209.574 25.5586C210.915 25.5586 211.944 25.5195 212.66 25.4414V26.2422C212.1 26.3854 211.592 26.7174 211.137 27.2383C210.694 27.7591 210.277 28.5729 209.887 29.6797L202.738 49.7969C202.204 51.1901 201.618 52.1406 200.98 52.6484C200.199 53.3125 199.034 53.6445 197.484 53.6445C196.794 53.6445 196.111 53.5273 195.434 53.293C194.77 53.0716 194.216 52.7201 193.773 52.2383C193.344 51.7565 193.129 51.1576 193.129 50.4414C193.129 49.6211 193.422 48.9635 194.008 48.4688C194.594 47.974 195.368 47.7266 196.332 47.7266C197.23 47.7266 197.953 47.9479 198.5 48.3906C199.06 48.8333 199.34 49.4518 199.34 50.2461C199.34 50.793 199.158 51.3008 198.793 51.7695C198.441 52.2513 197.953 52.6094 197.328 52.8438C197.523 52.8698 197.829 52.8828 198.246 52.8828C199.913 52.8828 201.13 51.8281 201.898 49.7188L202.543 47.8047L194.047 28.5273C193.63 27.6029 193.214 26.9974 192.797 26.7109C192.393 26.4245 191.983 26.2812 191.566 26.2812V25.4414C193.324 25.5977 195.154 25.6758 197.055 25.6758C198.63 25.6758 200.486 25.5977 202.621 25.4414V26.2812C202.048 26.2812 201.599 26.3008 201.273 26.3398C200.948 26.3789 200.668 26.4766 200.434 26.6328C200.212 26.7891 200.102 27.043 200.102 27.3945C200.102 27.707 200.193 28.0846 200.375 28.5273L205.277 40.3438L208.012 32.6484C208.441 31.3724 208.656 30.3047 208.656 29.4453C208.656 28.4297 208.396 27.6615 207.875 27.1406C207.354 26.6068 206.625 26.3073 205.687 26.2422V25.4414ZM222.972 28.6055C224.183 26.1315 226.37 24.8945 229.534 24.8945C230.628 24.8945 231.52 25.0247 232.21 25.2852C232.913 25.5456 233.486 25.9297 233.929 26.4375C234.372 26.9453 234.691 27.6029 234.886 28.4102C235.081 29.2174 235.179 30.2982 235.179 31.6523V42.4141C235.179 43.1562 235.264 43.7357 235.433 44.1523C235.602 44.569 235.869 44.862 236.234 45.0312C236.598 45.2005 237.099 45.2852 237.737 45.2852V46.125C235.081 46.0208 233.323 45.9688 232.464 45.9688C231.644 45.9688 229.905 46.0208 227.249 46.125V45.2852C227.796 45.2852 228.226 45.2005 228.538 45.0312C228.851 44.862 229.072 44.569 229.202 44.1523C229.346 43.7357 229.417 43.1562 229.417 42.4141V29.9727C229.417 28.8789 229.235 28.0521 228.87 27.4922C228.519 26.9323 227.874 26.6523 226.937 26.6523C226.208 26.6523 225.537 26.8542 224.925 27.2578C224.326 27.6615 223.851 28.2214 223.499 28.9375C223.148 29.6406 222.972 30.4219 222.972 31.2812V42.4141C222.972 43.1562 223.043 43.7357 223.187 44.1523C223.33 44.569 223.558 44.862 223.87 45.0312C224.183 45.2005 224.606 45.2852 225.14 45.2852V46.125C222.692 46.0208 221.038 45.9688 220.179 45.9688C219.359 45.9688 217.516 46.0208 214.652 46.125V45.2852C215.29 45.2852 215.791 45.2005 216.155 45.0312C216.533 44.862 216.8 44.569 216.956 44.1523C217.125 43.7357 217.21 43.1562 217.21 42.4141V29.7969C217.21 28.5599 217.021 27.668 216.644 27.1211C216.266 26.5612 215.602 26.2812 214.652 26.2812V25.4414C215.498 25.5195 216.325 25.5586 217.132 25.5586C219.489 25.5586 221.435 25.3763 222.972 25.0117V28.6055ZM246.643 33.7617C246.604 34.1523 246.584 34.7773 246.584 35.6367C246.584 37.4076 246.832 38.8789 247.327 40.0508C247.821 41.2096 248.459 42.0625 249.241 42.6094C250.035 43.1432 250.881 43.4102 251.78 43.4102C253.98 43.4102 255.745 42.3424 257.073 40.207L257.776 40.4414C257.437 41.5352 256.91 42.5573 256.194 43.5078C255.491 44.4453 254.592 45.2135 253.498 45.8125C252.418 46.3984 251.181 46.6914 249.787 46.6914C247.952 46.6914 246.337 46.3008 244.944 45.5195C243.564 44.7383 242.483 43.5534 241.702 41.9648C240.933 40.3633 240.549 38.3776 240.549 36.0078C240.549 33.5859 240.966 31.5482 241.799 29.8945C242.633 28.2279 243.785 26.9779 245.256 26.1445C246.728 25.3112 248.427 24.8945 250.354 24.8945C255.367 24.8945 257.873 27.8503 257.873 33.7617H246.643ZM252.834 33C252.873 30.9167 252.659 29.1849 252.19 27.8047C251.734 26.4245 251.037 25.7344 250.1 25.7344C249.149 25.7344 248.355 26.3268 247.717 27.5117C247.092 28.6836 246.708 30.513 246.565 33H252.834ZM262.853 38.4102C263.114 40.7148 263.673 42.5182 264.533 43.8203C265.405 45.1224 266.636 45.7734 268.224 45.7734C269.005 45.7734 269.669 45.5391 270.216 45.0703C270.776 44.5885 271.056 43.8724 271.056 42.9219C271.056 42.1797 270.887 41.5156 270.548 40.9297C270.223 40.3438 269.806 39.8229 269.298 39.3672C268.791 38.9115 268.029 38.2865 267.013 37.4922C265.776 36.4896 264.845 35.7018 264.22 35.1289C263.608 34.556 263.081 33.8789 262.638 33.0977C262.196 32.3034 261.974 31.4049 261.974 30.4023C261.974 29.2565 262.287 28.2669 262.912 27.4336C263.537 26.6003 264.377 25.9688 265.431 25.5391C266.486 25.1094 267.632 24.8945 268.869 24.8945C269.884 24.8945 270.815 25.0182 271.662 25.2656C272.508 25.513 273.172 25.7995 273.654 26.125C273.914 26.3073 274.149 26.3984 274.357 26.3984C274.852 26.3984 275.164 25.9102 275.294 24.9336H276.173C276.069 26.2747 276.017 28.6185 276.017 31.9648H275.138C274.904 30.2201 274.377 28.7552 273.556 27.5703C272.749 26.3724 271.571 25.7734 270.021 25.7734C269.227 25.7734 268.576 26.0013 268.068 26.457C267.56 26.9128 267.306 27.5378 267.306 28.332C267.306 29.2305 267.606 30.0052 268.205 30.6562C268.804 31.3073 269.526 31.9323 270.373 32.5312C271.219 33.1302 271.837 33.5794 272.228 33.8789C273.322 34.6992 274.188 35.4154 274.826 36.0273C275.477 36.6393 276.004 37.3359 276.408 38.1172C276.811 38.8854 277.013 39.7708 277.013 40.7734C277.013 41.9453 276.668 42.9805 275.978 43.8789C275.301 44.7773 274.383 45.474 273.224 45.9688C272.065 46.4505 270.796 46.6914 269.416 46.6914C267.996 46.6914 266.759 46.4115 265.705 45.8516C264.91 45.4479 264.285 45.168 263.83 45.0117C263.752 44.9857 263.686 44.9727 263.634 44.9727C263.205 44.9727 262.892 45.4479 262.697 46.3984H261.818C261.922 44.875 261.974 42.2122 261.974 38.4102H262.853ZM282.13 38.4102C282.39 40.7148 282.95 42.5182 283.809 43.8203C284.682 45.1224 285.912 45.7734 287.501 45.7734C288.282 45.7734 288.946 45.5391 289.493 45.0703C290.053 44.5885 290.333 43.8724 290.333 42.9219C290.333 42.1797 290.164 41.5156 289.825 40.9297C289.499 40.3438 289.083 39.8229 288.575 39.3672C288.067 38.9115 287.305 38.2865 286.29 37.4922C285.053 36.4896 284.122 35.7018 283.497 35.1289C282.885 34.556 282.358 33.8789 281.915 33.0977C281.472 32.3034 281.251 31.4049 281.251 30.4023C281.251 29.2565 281.563 28.2669 282.188 27.4336C282.813 26.6003 283.653 25.9688 284.708 25.5391C285.762 25.1094 286.908 24.8945 288.145 24.8945C289.161 24.8945 290.092 25.0182 290.938 25.2656C291.785 25.513 292.449 25.7995 292.93 26.125C293.191 26.3073 293.425 26.3984 293.634 26.3984C294.128 26.3984 294.441 25.9102 294.571 24.9336H295.45C295.346 26.2747 295.294 28.6185 295.294 31.9648H294.415C294.18 30.2201 293.653 28.7552 292.833 27.5703C292.025 26.3724 290.847 25.7734 289.298 25.7734C288.503 25.7734 287.852 26.0013 287.344 26.457C286.837 26.9128 286.583 27.5378 286.583 28.332C286.583 29.2305 286.882 30.0052 287.481 30.6562C288.08 31.3073 288.803 31.9323 289.649 32.5312C290.496 33.1302 291.114 33.5794 291.505 33.8789C292.598 34.6992 293.464 35.4154 294.102 36.0273C294.753 36.6393 295.281 37.3359 295.684 38.1172C296.088 38.8854 296.29 39.7708 296.29 40.7734C296.29 41.9453 295.945 42.9805 295.255 43.8789C294.578 44.7773 293.66 45.474 292.501 45.9688C291.342 46.4505 290.072 46.6914 288.692 46.6914C287.273 46.6914 286.036 46.4115 284.981 45.8516C284.187 45.4479 283.562 45.168 283.106 45.0117C283.028 44.9857 282.963 44.9727 282.911 44.9727C282.481 44.9727 282.169 45.4479 281.973 46.3984H281.094C281.199 44.875 281.251 42.2122 281.251 38.4102H282.13Z" fill="white"/>
</g>
<defs>
<clipPath id="clip0_1_512">
<rect width="298" height="65" fill="white" transform="translate(0 0.125)"/>
</clipPath>
</defs>
</svg>
