<svg width="55" height="56" viewBox="0 0 55 56" fill="none" xmlns="http://www.w3.org/2000/svg">
<path d="M1 1.125H54V54.125H1V1.125Z" stroke="#5C8692" stroke-width="2"/>
<g clip-path="url(#clip0_1_524)">
<path d="M24.125 34.125V24.7812H21.2188V34.125H24.125ZM22.6562 23.5312C23.5938 23.5312 24.3438 22.75 24.3438 21.8125C24.3438 20.9062 23.5938 20.1562 22.6562 20.1562C21.75 20.1562 21 20.9062 21 21.8125C21 22.75 21.75 23.5312 22.6562 23.5312ZM34.9688 34.125H35V29C35 26.5 34.4375 24.5625 31.5 24.5625C30.0938 24.5625 29.1562 25.3438 28.75 26.0625H28.7188V24.7812H25.9375V34.125H28.8438V29.5C28.8438 28.2812 29.0625 27.125 30.5625 27.125C32.0625 27.125 32.0938 28.5 32.0938 29.5938V34.125H34.9688Z" fill="white"/>
</g>
<defs>
<clipPath id="clip0_1_524">
<rect width="14" height="14" fill="white" transform="translate(21 20.125)"/>
</clipPath>
</defs>
</svg>
