<svg width="55" height="56" viewBox="0 0 55 56" fill="none" xmlns="http://www.w3.org/2000/svg">
<path d="M1 1.125H54V54.125H1V1.125Z" stroke="#5C8692" stroke-width="2"/>
<g clip-path="url(#clip0_1_532)">
<path d="M27.5 22.7324C25.125 22.7324 23.2324 24.6621 23.2324 27C23.2324 29.375 25.125 31.2676 27.5 31.2676C29.8379 31.2676 31.7676 29.375 31.7676 27C31.7676 24.6621 29.8379 22.7324 27.5 22.7324ZM27.5 29.7832C25.9785 29.7832 24.7168 28.5586 24.7168 27C24.7168 25.4785 25.9414 24.2539 27.5 24.2539C29.0215 24.2539 30.2461 25.4785 30.2461 27C30.2461 28.5586 29.0215 29.7832 27.5 29.7832ZM32.918 22.584C32.918 22.0273 32.4727 21.582 31.916 21.582C31.3594 21.582 30.9141 22.0273 30.9141 22.584C30.9141 23.1406 31.3594 23.5859 31.916 23.5859C32.4727 23.5859 32.918 23.1406 32.918 22.584ZM35.7383 23.5859C35.6641 22.25 35.3672 21.0625 34.4023 20.0977C33.4375 19.1328 32.25 18.8359 30.9141 18.7617C29.541 18.6875 25.4219 18.6875 24.0488 18.7617C22.7129 18.8359 21.5625 19.1328 20.5605 20.0977C19.5957 21.0625 19.2988 22.25 19.2246 23.5859C19.1504 24.959 19.1504 29.0781 19.2246 30.4512C19.2988 31.7871 19.5957 32.9375 20.5605 33.9395C21.5625 34.9043 22.7129 35.2012 24.0488 35.2754C25.4219 35.3496 29.541 35.3496 30.9141 35.2754C32.25 35.2012 33.4375 34.9043 34.4023 33.9395C35.3672 32.9375 35.6641 31.7871 35.7383 30.4512C35.8125 29.0781 35.8125 24.959 35.7383 23.5859ZM33.957 31.8984C33.6973 32.6406 33.1035 33.1973 32.3984 33.4941C31.2852 33.9395 28.6875 33.8281 27.5 33.8281C26.2754 33.8281 23.6777 33.9395 22.6016 33.4941C21.8594 33.1973 21.3027 32.6406 21.0059 31.8984C20.5605 30.8223 20.6719 28.2246 20.6719 27C20.6719 25.8125 20.5605 23.2148 21.0059 22.1016C21.3027 21.3965 21.8594 20.8398 22.6016 20.543C23.6777 20.0977 26.2754 20.209 27.5 20.209C28.6875 20.209 31.2852 20.0977 32.3984 20.543C33.1035 20.8027 33.6602 21.3965 33.957 22.1016C34.4023 23.2148 34.291 25.8125 34.291 27C34.291 28.2246 34.4023 30.8223 33.957 31.8984Z" fill="white"/>
</g>
<defs>
<clipPath id="clip0_1_532">
<rect width="17" height="18" fill="white" transform="translate(19 18.125)"/>
</clipPath>
</defs>
</svg>
