<svg width="55" height="56" viewBox="0 0 55 56" fill="none" xmlns="http://www.w3.org/2000/svg">
<path d="M1 1.125H54V54.125H1V1.125Z" stroke="#5C8692" stroke-width="2"/>
<g clip-path="url(#clip0_1_528)">
<path d="M34.3438 23.875C34.9688 23.4062 35.5312 22.8438 35.9688 22.1875C35.4062 22.4375 34.75 22.625 34.0938 22.6875C34.7812 22.2812 35.2812 21.6562 35.5312 20.875C34.9062 21.25 34.1875 21.5312 33.4688 21.6875C32.8438 21.0312 32 20.6562 31.0625 20.6562C29.25 20.6562 27.7812 22.125 27.7812 23.9375C27.7812 24.1875 27.8125 24.4375 27.875 24.6875C25.1562 24.5312 22.7188 23.2188 21.0938 21.25C20.8125 21.7188 20.6562 22.2812 20.6562 22.9062C20.6562 24.0312 21.2188 25.0312 22.125 25.625C21.5938 25.5938 21.0625 25.4688 20.625 25.2188V25.25C20.625 26.8438 21.75 28.1562 23.25 28.4688C23 28.5312 22.6875 28.5938 22.4062 28.5938C22.1875 28.5938 22 28.5625 21.7812 28.5312C22.1875 29.8438 23.4062 30.7812 24.8438 30.8125C23.7188 31.6875 22.3125 32.2188 20.7812 32.2188C20.5 32.2188 20.25 32.1875 20 32.1562C21.4375 33.0938 23.1562 33.625 25.0312 33.625C31.0625 33.625 34.3438 28.6562 34.3438 24.3125C34.3438 24.1562 34.3438 24.0312 34.3438 23.875Z" fill="white"/>
</g>
<defs>
<clipPath id="clip0_1_528">
<rect width="16" height="14" fill="white" transform="translate(20 20.125)"/>
</clipPath>
</defs>
</svg>
