<svg width="49" height="72" viewBox="0 0 49 72" fill="none" xmlns="http://www.w3.org/2000/svg">
<path d="M45.5363 64.575C43.6041 62.9325 40.9688 62.0283 38.1169 62.0283C34.3636 62.0283 31.7677 61.1916 30.675 60.757V55.7958C36.3014 53.7553 40.6749 49.0838 42.3019 43.2745C45.8245 42.833 48.5625 39.8138 48.5625 36.18C48.5625 32.8205 46.1859 29.9334 42.9909 29.205V26.782C44.2552 22.3509 44.1764 17.9986 43.8825 15.1144C43.7152 13.4663 43.462 12.1106 43.2792 11.2641C43.1091 10.478 42.9994 10.0533 42.9178 9.80719C42.9009 9.7425 42.8798 9.67922 42.8503 9.61734C41.6381 7.04812 39.4823 4.85859 36.7233 3.2175C36.667 3.17672 36.608 3.14297 36.5461 3.11344C33.1556 1.14609 28.8792 0 24.33 0C20.7483 0 17.2453 0.70875 14.2008 2.04891C13.6481 2.29219 13.3964 2.93766 13.6397 3.49172C13.883 4.04437 14.5284 4.29609 15.0825 4.05281C17.8514 2.83359 21.0492 2.18953 24.33 2.18953C27.9595 2.18953 31.3824 2.97 34.2202 4.33687C32.8899 5.48156 31.3064 6.58406 29.4136 7.68234C28.8905 7.98609 28.7133 8.65547 29.017 9.17859C29.2195 9.52875 29.5866 9.72422 29.9648 9.72422C30.1519 9.72422 30.3403 9.67641 30.5133 9.57656C32.8055 8.24625 34.6856 6.89906 36.2381 5.47453C38.1366 6.71766 39.6483 8.26594 40.6102 10.0392C40.5722 10.0997 40.5328 10.1587 40.4934 10.2192C40.4667 10.2586 40.44 10.2994 40.4133 10.3387C38.017 13.8291 32.932 17.1731 25.5759 20.0967C25.5324 20.1136 25.4874 20.1305 25.4438 20.1488C25.2834 20.212 25.1231 20.2753 24.9614 20.3372C17.6447 23.1637 10.1817 24.8245 7.55204 25.3631C6.95438 22.9402 6.76594 20.5495 6.78704 18.4134C7.69688 18.2306 8.60251 17.9691 9.48704 17.7145C10.1803 17.5134 10.8975 17.3067 11.5894 17.1464C11.6006 17.1436 11.6119 17.1408 11.6231 17.138C16.1217 15.9469 20.5486 14.3381 25.9781 11.9208C26.5308 11.6747 26.7783 11.0278 26.5322 10.4766C26.2861 9.92531 25.6392 9.67641 25.088 9.9225C19.7766 12.2878 15.4552 13.86 11.0803 15.0188C10.3364 15.1917 9.59532 15.4055 8.87954 15.6122C8.19469 15.8105 7.53376 16.0003 6.88688 16.1522C7.12454 13.095 7.70673 10.8984 7.82344 10.478C8.58141 8.90719 9.77954 7.47984 11.3869 6.23109C11.865 5.86125 11.9508 5.17359 11.5809 4.69547C11.2097 4.21875 10.5234 4.13156 10.0453 4.50141C8.13704 5.98359 6.7111 7.70484 5.80688 9.62016C5.78438 9.66938 5.76469 9.71859 5.74923 9.77063C5.64516 10.1152 3.23626 18.2728 5.66626 26.7862V29.2092C2.47407 29.9334 0.0960999 32.8219 0.0960999 36.1814C0.0960999 39.8152 2.83547 42.8344 6.35672 43.2759C7.98376 49.0852 12.3586 53.7567 17.9836 55.7972V60.7584C16.8881 61.1944 14.2936 62.0311 10.5417 62.0311C7.68985 62.0311 5.05594 62.9353 3.12235 64.5778C1.17188 66.2344 0.0960999 68.483 0.0960999 70.9059C0.0960999 71.5106 0.585475 72 1.19016 72H47.4698C48.0745 72 48.5639 71.5106 48.5639 70.9059C48.5639 68.483 47.4881 66.2344 45.5363 64.575ZM42.8109 40.8361C42.9291 39.9783 42.9909 39.112 42.9909 38.2472V31.4775C44.9597 32.1441 46.3744 34.0228 46.3744 36.1814C46.3744 38.4328 44.8598 40.3453 42.7969 40.9472C42.8025 40.9106 42.8067 40.8727 42.8109 40.8361ZM2.28422 36.1814C2.28422 34.0228 3.69891 32.1441 5.66766 31.4775V38.2472C5.66766 39.1134 5.72954 39.9783 5.84766 40.8361C5.85329 40.8727 5.8561 40.9106 5.86172 40.9472C3.79876 40.3439 2.28422 38.4328 2.28422 36.1814ZM41.018 13.1048C41.0433 13.0767 41.0686 13.0472 41.0939 13.0191C41.1628 12.9403 41.2303 12.8616 41.2964 12.7828C41.3091 12.7673 41.3231 12.7519 41.3358 12.7378C41.8322 15.5039 42.3384 20.3681 41.1066 25.3617C38.9283 24.9159 33.4284 23.7038 27.4603 21.6942C33.7139 19.1067 38.2519 16.2323 41.018 13.1048ZM8.12016 41.1877C8.11876 41.1764 8.11594 41.1638 8.11313 41.1525C7.94016 40.1948 7.85719 39.2203 7.85719 38.2472V30.143V27.533C7.86704 27.5316 7.87829 27.5288 7.88954 27.5259C9.58407 27.1884 11.2688 26.7933 12.945 26.3742C14.7113 25.9327 16.4677 25.4545 18.2128 24.9356C19.3561 24.5953 20.4952 24.2381 21.6258 23.8598C21.6469 23.8528 21.6666 23.8458 21.6877 23.8388H26.9752C33.0769 25.8792 38.6808 27.1027 40.8042 27.5316V30.1416V38.2458C40.8042 39.2175 40.7184 40.1948 40.5469 41.1525C40.5455 41.1638 40.5427 41.175 40.5413 41.1862C39.4219 47.3794 34.8277 52.3786 28.8581 54.0872C28.8483 54.09 28.8384 54.0928 28.8286 54.0956C27.3675 54.5062 25.8488 54.72 24.33 54.72C22.8155 54.72 21.2855 54.5161 19.83 54.0956C19.823 54.0942 19.8174 54.0914 19.8103 54.09C13.838 52.3828 9.24094 47.3822 8.12016 41.1877ZM2.38829 69.8105C2.64844 68.4591 3.39094 67.2202 4.53985 66.2428C6.07688 64.9364 8.20876 64.2178 10.5417 64.2178C16.1738 64.2178 19.4545 62.5092 19.5909 62.4361C19.9481 62.2463 20.1717 61.875 20.1717 61.47C20.1717 61.47 20.1717 56.4427 20.1717 56.4441C20.1745 56.8617 24.1078 56.9095 24.3286 56.9095C25.7264 56.9095 27.1214 56.7548 28.4855 56.4441V61.4714C28.4855 61.8764 28.7091 62.2477 29.0663 62.4375C29.2027 62.5106 32.4834 64.2192 38.1155 64.2192C40.4484 64.2192 42.5803 64.9378 44.1174 66.2442C45.2677 67.2216 46.0088 68.4605 46.2689 69.8119H2.38829V69.8105Z" fill="#7A9CA5"/>
</svg>
